<svg xmlns="http://www.w3.org/2000/svg" width="262.219" height="54.563" viewBox="0 0 262.219 54.563">
  <metadata><?xpacket begin="﻿" id="W5M0MpCehiHzreSzNTczkc9d"?>
<x:xmpmeta xmlns:x="adobe:ns:meta/" x:xmptk="Adobe XMP Core 5.6-c142 79.160924, 2017/07/13-01:06:39        ">
   <rdf:RDF xmlns:rdf="http://www.w3.org/1999/02/22-rdf-syntax-ns#">
      <rdf:Description rdf:about=""/>
   </rdf:RDF>
</x:xmpmeta>
                                                                                                    
                                                                                                    
                                                                                                    
                                                                                                    
                                                                                                    
                                                                                                    
                                                                                                    
                                                                                                    
                                                                                                    
                                                                                                    
                                                                                                    
                                                                                                    
                                                                                                    
                                                                                                    
                                                                                                    
                                                                                                    
                                                                                                    
                                                                                                    
                                                                                                    
                                                                                                    
                           
<?xpacket end="w"?></metadata>
<defs>
    <style>
      .cls-1 {
        fill: #fefefe;
        fill-rule: evenodd;
      }
    </style>
  </defs>
  <path id="Perugia" class="cls-1" d="M10.882,43.081v-15.9h6.938a75.65,75.65,0,0,0,11.037-.6,17.5,17.5,0,0,0,5.518-2,12.781,12.781,0,0,0,4.476-4.156,11.526,11.526,0,0,0,1.762-6.529,11.358,11.358,0,0,0-3.056-8.211,14.338,14.338,0,0,0-7.586-4.127Q27.024,0.919,17.317.918H0.241V43.081H10.882Zm5.141-35.03a63.884,63.884,0,0,1,7.657.288,8.02,8.02,0,0,1,4.278,1.869,4.849,4.849,0,0,1,1.69,3.8,4.893,4.893,0,0,1-1.2,3.279,6.98,6.98,0,0,1-3.325,2.071q-2.122.662-8.413,0.661H10.882V8.051h5.141ZM68.942,36.7a7.257,7.257,0,0,1-3.991,1.035,8.644,8.644,0,0,1-5.824-2,7.268,7.268,0,0,1-2.445-5.594H81.993q0.216-9.289-4.71-13.791t-13.445-4.5a18.471,18.471,0,0,0-12.547,4.3q-4.961,4.3-4.961,11.892A15.09,15.09,0,0,0,50.1,38.566q4.781,5.206,14.74,5.206a21.448,21.448,0,0,0,10.48-2.315,13.849,13.849,0,0,0,6.13-6.744L71.387,33.36A6.319,6.319,0,0,1,68.942,36.7Zm-12.079-11.5a6.562,6.562,0,0,1,2.121-5.234,8.585,8.585,0,0,1,10.713-.1,6.9,6.9,0,0,1,2.265,5.335h-15.1ZM99.9,33.648q0-7.794.845-10.239a6.219,6.219,0,0,1,2.319-3.379,6.578,6.578,0,0,1,3.595-.935,10.405,10.405,0,0,1,4.745,1.323l3.128-7.046a15.293,15.293,0,0,0-6.651-1.524,9.5,9.5,0,0,0-4.368.978,14.469,14.469,0,0,0-4.332,4.055V12.537H89.794V43.081H99.9V33.648Zm53.494,9.434V12.537h-10.1V25.422q0,6.557-.755,8.24a6.2,6.2,0,0,1-2.8,2.819,9.4,9.4,0,0,1-4.637,1.136,7.413,7.413,0,0,1-3.739-.849,4.467,4.467,0,0,1-2.032-2.3q-0.556-1.452-.557-7.895V12.537h-10.1V31.864a13.945,13.945,0,0,0,1.366,6.759,9.022,9.022,0,0,0,4.422,3.8,16.9,16.9,0,0,0,6.9,1.352,18.54,18.54,0,0,0,7.172-1.409,14.2,14.2,0,0,0,5.482-3.854v4.573h9.383Zm9.491,2.991q0,4.083,4.063,6.744t13.769,2.66a34.969,34.969,0,0,0,8.5-.863,15.069,15.069,0,0,0,5.375-2.387,9.911,9.911,0,0,0,3.128-4.2,22.192,22.192,0,0,0,1.114-8.082V12.537h-9.455v4.285a15.223,15.223,0,0,0-11.684-4.976A16.781,16.781,0,0,0,166.207,15.9q-4.62,4.055-4.62,11.734a15.185,15.185,0,0,0,3.523,10.239q4.494,5.206,12.188,5.206a14.836,14.836,0,0,0,11.432-4.947v4.458a9.966,9.966,0,0,1-.467,3.71,4.216,4.216,0,0,1-2.014,2.042,14.275,14.275,0,0,1-5.932.949,9.105,9.105,0,0,1-4.529-.863,2.986,2.986,0,0,1-1.331-2.215l-11.54-1.122q-0.036.575-.036,0.978h0ZM174.3,20.288a8.3,8.3,0,0,1,5.985-2.258,8.666,8.666,0,0,1,6.184,2.3q2.445,2.3,2.445,7.046,0,4.545-2.553,6.859a8.972,8.972,0,0,1-6.255,2.315,8.064,8.064,0,0,1-5.806-2.258q-2.355-2.257-2.355-7.118Q171.941,22.546,174.3,20.288ZM218.928,8.4V0.918h-10.1V8.4h10.1Zm0,34.685V12.537h-10.1V43.081h10.1Zm20.348-24.2a8.662,8.662,0,0,1,4.207-.848q3.99,0,5.428.992a3.745,3.745,0,0,1,1.438,3.322V23.15a66.318,66.318,0,0,1-9.814,1.985,40.4,40.4,0,0,0-8.035,1.884,9.673,9.673,0,0,0-4.332,3.106,7.41,7.41,0,0,0-1.546,4.616,7.794,7.794,0,0,0,3.4,6.471q3.4,2.56,9.293,2.56a19.35,19.35,0,0,0,6.292-1.007,18.949,18.949,0,0,0,5.536-3.02q0.108,0.23.36,0.949a25.51,25.51,0,0,0,.97,2.387h9.995a15.2,15.2,0,0,1-1.816-4.1,26.375,26.375,0,0,1-.485-5.939l0.108-9.433q0-5.263-1.349-7.233a9.656,9.656,0,0,0-4.655-3.25q-3.308-1.279-10.066-1.28-7.441,0-11.217,2.128a11.609,11.609,0,0,0-5.321,6.557l9.168,1.323A6.026,6.026,0,0,1,239.276,18.879Zm11.073,11.145a12.905,12.905,0,0,1-.395,3.94,5.272,5.272,0,0,1-2.409,2.675,10.241,10.241,0,0,1-5.213,1.438,6.337,6.337,0,0,1-4.026-1.237,3.639,3.639,0,0,1-1.582-2.934,3.277,3.277,0,0,1,1.977-2.847,21.875,21.875,0,0,1,5.5-1.409q4.206-.718,6.147-1.237v1.611Z" transform="translate(-0.25 -0.906)"/>
</svg>
