<svg xmlns="http://www.w3.org/2000/svg" width="324.969" height="42.844" viewBox="0 0 324.969 42.844">
  <metadata><?xpacket begin="﻿" id="W5M0MpCehiHzreSzNTczkc9d"?>
<x:xmpmeta xmlns:x="adobe:ns:meta/" x:xmptk="Adobe XMP Core 5.6-c142 79.160924, 2017/07/13-01:06:39        ">
   <rdf:RDF xmlns:rdf="http://www.w3.org/1999/02/22-rdf-syntax-ns#">
      <rdf:Description rdf:about=""/>
   </rdf:RDF>
</x:xmpmeta>
                                                                                                    
                                                                                                    
                                                                                                    
                                                                                                    
                                                                                                    
                                                                                                    
                                                                                                    
                                                                                                    
                                                                                                    
                                                                                                    
                                                                                                    
                                                                                                    
                                                                                                    
                                                                                                    
                                                                                                    
                                                                                                    
                                                                                                    
                                                                                                    
                                                                                                    
                                                                                                    
                           
<?xpacket end="w"?></metadata>
<defs>
    <style>
      .cls-1 {
        fill: #fefefe;
        fill-rule: evenodd;
      }
    </style>
  </defs>
  <path id="Valnerina" class="cls-1" d="M31.009,42.2L49.883,0.033H38.594L25.688,31.239,12.35,0.033H0.81L19.648,42.2h11.36Zm30.163-24.2a8.658,8.658,0,0,1,4.206-.848q3.99,0,5.429.992a3.746,3.746,0,0,1,1.438,3.322v0.805a66.335,66.335,0,0,1-9.814,1.985,40.4,40.4,0,0,0-8.035,1.884,9.676,9.676,0,0,0-4.332,3.106,7.411,7.411,0,0,0-1.546,4.616,7.8,7.8,0,0,0,3.4,6.471q3.4,2.56,9.293,2.56A19.344,19.344,0,0,0,67.5,41.88a18.959,18.959,0,0,0,5.536-3.02q0.108,0.231.359,0.949a25.508,25.508,0,0,0,.971,2.387h9.994a15.185,15.185,0,0,1-1.815-4.1,26.336,26.336,0,0,1-.485-5.939l0.108-9.433q0-5.263-1.348-7.233a9.663,9.663,0,0,0-4.656-3.25q-3.308-1.279-10.066-1.28-7.442,0-11.217,2.128a11.6,11.6,0,0,0-5.321,6.557l9.167,1.323A6.024,6.024,0,0,1,61.171,17.994ZM72.244,29.139a12.888,12.888,0,0,1-.4,3.94,5.268,5.268,0,0,1-2.409,2.675,10.239,10.239,0,0,1-5.213,1.438A6.339,6.339,0,0,1,60.2,35.955a3.639,3.639,0,0,1-1.582-2.933A3.276,3.276,0,0,1,60.6,30.174a21.865,21.865,0,0,1,5.5-1.409q4.206-.718,6.147-1.237v1.611ZM102.227,42.2V0.033h-10.1V42.2h10.1Zm45.082-18.982a20.378,20.378,0,0,0-.557-5.436,8.256,8.256,0,0,0-1.978-3.394,10.4,10.4,0,0,0-4.188-2.459,18.5,18.5,0,0,0-6.112-.963,16.751,16.751,0,0,0-12.582,5.177V11.653h-9.383V42.2h10.1V28.363q0-5.119.773-7.018a6.114,6.114,0,0,1,2.858-3.049,9.581,9.581,0,0,1,4.709-1.15,7.142,7.142,0,0,1,3.5.805,4.742,4.742,0,0,1,2.1,2.258q0.647,1.453.647,6.4V42.2h10.1V23.214Zm29.911,12.6a7.259,7.259,0,0,1-3.991,1.035,8.645,8.645,0,0,1-5.824-2,7.266,7.266,0,0,1-2.444-5.594H190.27q0.216-9.289-4.71-13.791t-13.445-4.5a18.469,18.469,0,0,0-12.547,4.3q-4.962,4.3-4.961,11.892a15.088,15.088,0,0,0,3.775,10.526q4.78,5.206,14.739,5.206a21.449,21.449,0,0,0,10.48-2.315,13.846,13.846,0,0,0,6.129-6.744l-10.066-1.352A6.318,6.318,0,0,1,177.22,35.811Zm-12.08-11.5a6.563,6.563,0,0,1,2.121-5.234,8.586,8.586,0,0,1,10.714-.1,6.9,6.9,0,0,1,2.265,5.335h-15.1Zm43.033,8.456q0-7.794.845-10.239a6.219,6.219,0,0,1,2.319-3.379,6.578,6.578,0,0,1,3.595-.935,10.405,10.405,0,0,1,4.745,1.323l3.128-7.046a15.29,15.29,0,0,0-6.651-1.524,9.5,9.5,0,0,0-4.368.978A14.492,14.492,0,0,0,207.454,16V11.653h-9.383V42.2h10.1V32.763ZM237.257,7.511V0.033h-10.1V7.511h10.1Zm0,34.685V11.653h-10.1V42.2h10.1Zm45.082-18.982a20.378,20.378,0,0,0-.557-5.436,8.265,8.265,0,0,0-1.977-3.394,10.4,10.4,0,0,0-4.188-2.459,18.5,18.5,0,0,0-6.112-.963,16.753,16.753,0,0,0-12.583,5.177V11.653h-9.383V42.2h10.1V28.363q0-5.119.773-7.018a6.118,6.118,0,0,1,2.858-3.049,9.588,9.588,0,0,1,4.71-1.15,7.145,7.145,0,0,1,3.5.805,4.735,4.735,0,0,1,2.1,2.258q0.647,1.453.647,6.4V42.2h10.1V23.214Zm20.24-5.22a8.662,8.662,0,0,1,4.207-.848q3.99,0,5.428.992a3.745,3.745,0,0,1,1.438,3.322v0.805a66.318,66.318,0,0,1-9.814,1.985,40.4,40.4,0,0,0-8.035,1.884,9.673,9.673,0,0,0-4.332,3.106,7.41,7.41,0,0,0-1.546,4.616,7.794,7.794,0,0,0,3.4,6.471q3.4,2.56,9.293,2.56a19.35,19.35,0,0,0,6.292-1.007,18.947,18.947,0,0,0,5.536-3.02q0.108,0.231.36,0.949a25.51,25.51,0,0,0,.97,2.387h9.995a15.2,15.2,0,0,1-1.816-4.1,26.376,26.376,0,0,1-.485-5.939l0.108-9.433q0-5.263-1.348-7.233a9.664,9.664,0,0,0-4.656-3.25q-3.308-1.279-10.066-1.28-7.442,0-11.217,2.128a11.609,11.609,0,0,0-5.321,6.557l9.168,1.323A6.026,6.026,0,0,1,302.579,17.994Zm11.073,11.145a12.905,12.905,0,0,1-.395,3.94,5.272,5.272,0,0,1-2.409,2.675,10.241,10.241,0,0,1-5.213,1.438,6.337,6.337,0,0,1-4.026-1.237,3.639,3.639,0,0,1-1.582-2.933A3.277,3.277,0,0,1,302,30.174a21.875,21.875,0,0,1,5.5-1.409q4.206-.718,6.147-1.237v1.611Z" transform="translate(-0.813 -0.031)"/>
</svg>
